<mxfile host="app.diagrams.net" modified="2022-10-11T21:35:02.406Z" agent="5.0 (Windows NT 10.0; Win64; x64) AppleWebKit/537.36 (KHTML, like Gecko) Chrome/105.0.0.0 Safari/537.36" etag="i6Ei-vyx28JpqI5lfCoa" version="20.4.0" type="github">
  <diagram id="XUMU6Klbx8vC4agGlKeW" name="Страница 1">
    <mxGraphModel dx="2123" dy="1841" grid="1" gridSize="10" guides="1" tooltips="1" connect="1" arrows="1" fold="1" page="1" pageScale="1" pageWidth="827" pageHeight="1169" background="none" math="0" shadow="0">
      <root>
        <mxCell id="0" />
        <mxCell id="1" parent="0" />
        <mxCell id="kJR66jxbIm6fvpwEPS24-3" value="" style="edgeStyle=orthogonalEdgeStyle;rounded=0;orthogonalLoop=1;jettySize=auto;html=1;" edge="1" parent="1" source="kJR66jxbIm6fvpwEPS24-1" target="kJR66jxbIm6fvpwEPS24-2">
          <mxGeometry relative="1" as="geometry" />
        </mxCell>
        <mxCell id="kJR66jxbIm6fvpwEPS24-1" value="Start" style="ellipse;whiteSpace=wrap;html=1;" vertex="1" parent="1">
          <mxGeometry x="60" y="10" width="120" height="60" as="geometry" />
        </mxCell>
        <mxCell id="kJR66jxbIm6fvpwEPS24-5" value="" style="edgeStyle=orthogonalEdgeStyle;rounded=0;orthogonalLoop=1;jettySize=auto;html=1;" edge="1" parent="1" source="kJR66jxbIm6fvpwEPS24-2" target="kJR66jxbIm6fvpwEPS24-4">
          <mxGeometry relative="1" as="geometry" />
        </mxCell>
        <mxCell id="kJR66jxbIm6fvpwEPS24-2" value="x, n&lt;br&gt;is_norm1 = scanf(x)&lt;br&gt;is_norm2 = scanf(n)" style="shape=parallelogram;perimeter=parallelogramPerimeter;whiteSpace=wrap;html=1;fixedSize=1;" vertex="1" parent="1">
          <mxGeometry x="47.5" y="100" width="145" height="60" as="geometry" />
        </mxCell>
        <mxCell id="kJR66jxbIm6fvpwEPS24-7" value="" style="edgeStyle=orthogonalEdgeStyle;rounded=0;orthogonalLoop=1;jettySize=auto;html=1;" edge="1" parent="1" source="kJR66jxbIm6fvpwEPS24-4">
          <mxGeometry relative="1" as="geometry">
            <mxPoint x="250.0000000000001" y="240" as="targetPoint" />
          </mxGeometry>
        </mxCell>
        <mxCell id="kJR66jxbIm6fvpwEPS24-10" value="" style="edgeStyle=orthogonalEdgeStyle;rounded=0;orthogonalLoop=1;jettySize=auto;html=1;" edge="1" parent="1" source="kJR66jxbIm6fvpwEPS24-4" target="kJR66jxbIm6fvpwEPS24-9">
          <mxGeometry relative="1" as="geometry" />
        </mxCell>
        <mxCell id="kJR66jxbIm6fvpwEPS24-4" value="(is_norm1 != 1) ||&lt;br&gt;(is_norm2 != 1) ||&lt;br&gt;(n &amp;lt; 1)" style="rhombus;whiteSpace=wrap;html=1;" vertex="1" parent="1">
          <mxGeometry x="60" y="190" width="120" height="100" as="geometry" />
        </mxCell>
        <mxCell id="kJR66jxbIm6fvpwEPS24-8" value="&quot;Incorrect input&quot;&lt;br&gt;return 0" style="ellipse;whiteSpace=wrap;html=1;" vertex="1" parent="1">
          <mxGeometry x="250" y="200" width="120" height="80" as="geometry" />
        </mxCell>
        <mxCell id="kJR66jxbIm6fvpwEPS24-12" value="" style="edgeStyle=orthogonalEdgeStyle;rounded=0;orthogonalLoop=1;jettySize=auto;html=1;" edge="1" parent="1" source="kJR66jxbIm6fvpwEPS24-9" target="kJR66jxbIm6fvpwEPS24-11">
          <mxGeometry relative="1" as="geometry" />
        </mxCell>
        <mxCell id="kJR66jxbIm6fvpwEPS24-9" value="res1 = cos_1(x, n);&lt;br&gt;res2 = cos x * cos x;" style="whiteSpace=wrap;html=1;" vertex="1" parent="1">
          <mxGeometry x="60" y="320" width="120" height="60" as="geometry" />
        </mxCell>
        <mxCell id="kJR66jxbIm6fvpwEPS24-14" value="" style="edgeStyle=orthogonalEdgeStyle;rounded=0;orthogonalLoop=1;jettySize=auto;html=1;" edge="1" parent="1" source="kJR66jxbIm6fvpwEPS24-11" target="kJR66jxbIm6fvpwEPS24-13">
          <mxGeometry relative="1" as="geometry" />
        </mxCell>
        <mxCell id="kJR66jxbIm6fvpwEPS24-11" value="res1, res2" style="shape=parallelogram;perimeter=parallelogramPerimeter;whiteSpace=wrap;html=1;fixedSize=1;" vertex="1" parent="1">
          <mxGeometry x="60" y="410" width="120" height="60" as="geometry" />
        </mxCell>
        <mxCell id="kJR66jxbIm6fvpwEPS24-13" value="return 0" style="ellipse;whiteSpace=wrap;html=1;" vertex="1" parent="1">
          <mxGeometry x="60" y="500" width="120" height="60" as="geometry" />
        </mxCell>
        <mxCell id="kJR66jxbIm6fvpwEPS24-17" value="" style="edgeStyle=orthogonalEdgeStyle;rounded=0;orthogonalLoop=1;jettySize=auto;html=1;" edge="1" parent="1" source="kJR66jxbIm6fvpwEPS24-15" target="kJR66jxbIm6fvpwEPS24-16">
          <mxGeometry relative="1" as="geometry" />
        </mxCell>
        <mxCell id="kJR66jxbIm6fvpwEPS24-15" value="cos_1(x, n)" style="ellipse;whiteSpace=wrap;html=1;" vertex="1" parent="1">
          <mxGeometry x="500" y="10" width="120" height="60" as="geometry" />
        </mxCell>
        <mxCell id="kJR66jxbIm6fvpwEPS24-19" value="" style="edgeStyle=orthogonalEdgeStyle;rounded=0;orthogonalLoop=1;jettySize=auto;html=1;" edge="1" parent="1" source="kJR66jxbIm6fvpwEPS24-16" target="kJR66jxbIm6fvpwEPS24-18">
          <mxGeometry relative="1" as="geometry" />
        </mxCell>
        <mxCell id="kJR66jxbIm6fvpwEPS24-16" value="member = -x * x&lt;br&gt;sum = 1 + member" style="whiteSpace=wrap;html=1;" vertex="1" parent="1">
          <mxGeometry x="500" y="100" width="120" height="60" as="geometry" />
        </mxCell>
        <mxCell id="kJR66jxbIm6fvpwEPS24-21" value="" style="edgeStyle=orthogonalEdgeStyle;rounded=0;orthogonalLoop=1;jettySize=auto;html=1;" edge="1" parent="1" source="kJR66jxbIm6fvpwEPS24-18" target="kJR66jxbIm6fvpwEPS24-20">
          <mxGeometry relative="1" as="geometry" />
        </mxCell>
        <mxCell id="kJR66jxbIm6fvpwEPS24-23" value="" style="edgeStyle=orthogonalEdgeStyle;rounded=0;orthogonalLoop=1;jettySize=auto;html=1;" edge="1" parent="1" source="kJR66jxbIm6fvpwEPS24-18" target="kJR66jxbIm6fvpwEPS24-22">
          <mxGeometry relative="1" as="geometry" />
        </mxCell>
        <mxCell id="kJR66jxbIm6fvpwEPS24-18" value="n == 1" style="rhombus;whiteSpace=wrap;html=1;" vertex="1" parent="1">
          <mxGeometry x="512.5" y="190" width="95" height="90" as="geometry" />
        </mxCell>
        <mxCell id="kJR66jxbIm6fvpwEPS24-20" value="return 1" style="ellipse;whiteSpace=wrap;html=1;" vertex="1" parent="1">
          <mxGeometry x="680" y="205" width="120" height="60" as="geometry" />
        </mxCell>
        <mxCell id="kJR66jxbIm6fvpwEPS24-25" value="" style="edgeStyle=orthogonalEdgeStyle;rounded=0;orthogonalLoop=1;jettySize=auto;html=1;" edge="1" parent="1" source="kJR66jxbIm6fvpwEPS24-22" target="kJR66jxbIm6fvpwEPS24-24">
          <mxGeometry relative="1" as="geometry" />
        </mxCell>
        <mxCell id="kJR66jxbIm6fvpwEPS24-27" value="" style="edgeStyle=orthogonalEdgeStyle;rounded=0;orthogonalLoop=1;jettySize=auto;html=1;" edge="1" parent="1" source="kJR66jxbIm6fvpwEPS24-22">
          <mxGeometry relative="1" as="geometry">
            <mxPoint x="560" y="430" as="targetPoint" />
          </mxGeometry>
        </mxCell>
        <mxCell id="kJR66jxbIm6fvpwEPS24-22" value="n == 2" style="rhombus;whiteSpace=wrap;html=1;" vertex="1" parent="1">
          <mxGeometry x="515" y="310" width="90" height="90" as="geometry" />
        </mxCell>
        <mxCell id="kJR66jxbIm6fvpwEPS24-24" value="return sum" style="ellipse;whiteSpace=wrap;html=1;" vertex="1" parent="1">
          <mxGeometry x="680" y="325" width="120" height="60" as="geometry" />
        </mxCell>
        <mxCell id="kJR66jxbIm6fvpwEPS24-30" value="" style="edgeStyle=orthogonalEdgeStyle;rounded=0;orthogonalLoop=1;jettySize=auto;html=1;" edge="1" parent="1" source="kJR66jxbIm6fvpwEPS24-28" target="kJR66jxbIm6fvpwEPS24-29">
          <mxGeometry relative="1" as="geometry" />
        </mxCell>
        <mxCell id="kJR66jxbIm6fvpwEPS24-39" style="edgeStyle=orthogonalEdgeStyle;rounded=0;orthogonalLoop=1;jettySize=auto;html=1;exitX=0;exitY=0.5;exitDx=0;exitDy=0;exitPerimeter=0;entryX=0;entryY=0.5;entryDx=0;entryDy=0;" edge="1" parent="1" source="kJR66jxbIm6fvpwEPS24-28" target="kJR66jxbIm6fvpwEPS24-33">
          <mxGeometry relative="1" as="geometry">
            <Array as="points">
              <mxPoint x="470" y="460" />
              <mxPoint x="470" y="655" />
            </Array>
          </mxGeometry>
        </mxCell>
        <mxCell id="kJR66jxbIm6fvpwEPS24-28" value="i = 3; i &amp;lt;= n; i++" style="strokeWidth=2;html=1;shape=mxgraph.flowchart.loop_limit;whiteSpace=wrap;" vertex="1" parent="1">
          <mxGeometry x="510" y="430" width="100" height="60" as="geometry" />
        </mxCell>
        <mxCell id="kJR66jxbIm6fvpwEPS24-37" style="edgeStyle=orthogonalEdgeStyle;rounded=0;orthogonalLoop=1;jettySize=auto;html=1;exitX=1;exitY=0.5;exitDx=0;exitDy=0;entryX=1;entryY=0.5;entryDx=0;entryDy=0;entryPerimeter=0;" edge="1" parent="1" source="kJR66jxbIm6fvpwEPS24-29" target="kJR66jxbIm6fvpwEPS24-28">
          <mxGeometry relative="1" as="geometry" />
        </mxCell>
        <mxCell id="kJR66jxbIm6fvpwEPS24-29" value="member *= ((-4x^2) / ((2i - 3)(2-2)))&lt;br&gt;sum += member" style="whiteSpace=wrap;html=1;strokeWidth=2;" vertex="1" parent="1">
          <mxGeometry x="500" y="524.5" width="120" height="60" as="geometry" />
        </mxCell>
        <mxCell id="kJR66jxbIm6fvpwEPS24-33" value="return sum" style="ellipse;whiteSpace=wrap;html=1;" vertex="1" parent="1">
          <mxGeometry x="500" y="620" width="120" height="70" as="geometry" />
        </mxCell>
        <mxCell id="kJR66jxbIm6fvpwEPS24-34" value="Да" style="text;html=1;strokeColor=none;fillColor=none;align=center;verticalAlign=middle;whiteSpace=wrap;rounded=0;" vertex="1" parent="1">
          <mxGeometry x="180" y="210" width="60" height="30" as="geometry" />
        </mxCell>
        <mxCell id="kJR66jxbIm6fvpwEPS24-35" value="Да" style="text;html=1;strokeColor=none;fillColor=none;align=center;verticalAlign=middle;whiteSpace=wrap;rounded=0;" vertex="1" parent="1">
          <mxGeometry x="610" y="200" width="60" height="35" as="geometry" />
        </mxCell>
        <mxCell id="kJR66jxbIm6fvpwEPS24-36" value="Да" style="text;html=1;strokeColor=none;fillColor=none;align=center;verticalAlign=middle;whiteSpace=wrap;rounded=0;" vertex="1" parent="1">
          <mxGeometry x="607.5" y="325" width="60" height="30" as="geometry" />
        </mxCell>
        <mxCell id="kJR66jxbIm6fvpwEPS24-40" value="&lt;font style=&quot;font-size: 27px;&quot;&gt;1&lt;/font&gt;" style="text;html=1;strokeColor=none;fillColor=none;align=center;verticalAlign=middle;whiteSpace=wrap;rounded=0;strokeWidth=10;" vertex="1" parent="1">
          <mxGeometry x="90" y="-40" width="60" height="30" as="geometry" />
        </mxCell>
        <mxCell id="kJR66jxbIm6fvpwEPS24-41" value="&lt;font style=&quot;font-size: 27px;&quot;&gt;A&lt;/font&gt;" style="text;html=1;strokeColor=none;fillColor=none;align=center;verticalAlign=middle;whiteSpace=wrap;rounded=0;strokeWidth=10;" vertex="1" parent="1">
          <mxGeometry x="-12.5" y="25" width="60" height="30" as="geometry" />
        </mxCell>
        <mxCell id="kJR66jxbIm6fvpwEPS24-42" value="&lt;font style=&quot;font-size: 27px;&quot;&gt;B&lt;/font&gt;" style="text;html=1;strokeColor=none;fillColor=none;align=center;verticalAlign=middle;whiteSpace=wrap;rounded=0;strokeWidth=10;" vertex="1" parent="1">
          <mxGeometry x="-12.5" y="115" width="60" height="30" as="geometry" />
        </mxCell>
        <mxCell id="kJR66jxbIm6fvpwEPS24-43" value="&lt;font style=&quot;font-size: 27px;&quot;&gt;C&lt;/font&gt;" style="text;html=1;strokeColor=none;fillColor=none;align=center;verticalAlign=middle;whiteSpace=wrap;rounded=0;strokeWidth=10;" vertex="1" parent="1">
          <mxGeometry x="-12.5" y="225" width="60" height="30" as="geometry" />
        </mxCell>
        <mxCell id="kJR66jxbIm6fvpwEPS24-44" value="&lt;font style=&quot;font-size: 27px;&quot;&gt;D&lt;/font&gt;" style="text;html=1;strokeColor=none;fillColor=none;align=center;verticalAlign=middle;whiteSpace=wrap;rounded=0;strokeWidth=10;" vertex="1" parent="1">
          <mxGeometry x="-12.5" y="340" width="60" height="30" as="geometry" />
        </mxCell>
        <mxCell id="kJR66jxbIm6fvpwEPS24-45" value="&lt;font style=&quot;font-size: 27px;&quot;&gt;E&lt;/font&gt;" style="text;html=1;strokeColor=none;fillColor=none;align=center;verticalAlign=middle;whiteSpace=wrap;rounded=0;strokeWidth=10;" vertex="1" parent="1">
          <mxGeometry x="-12.5" y="425" width="60" height="30" as="geometry" />
        </mxCell>
        <mxCell id="kJR66jxbIm6fvpwEPS24-46" value="&lt;font style=&quot;font-size: 27px;&quot;&gt;F&lt;/font&gt;" style="text;html=1;strokeColor=none;fillColor=none;align=center;verticalAlign=middle;whiteSpace=wrap;rounded=0;strokeWidth=10;" vertex="1" parent="1">
          <mxGeometry x="-12.5" y="515" width="60" height="30" as="geometry" />
        </mxCell>
        <mxCell id="kJR66jxbIm6fvpwEPS24-47" value="&lt;font style=&quot;font-size: 27px;&quot;&gt;2&lt;/font&gt;" style="text;html=1;strokeColor=none;fillColor=none;align=center;verticalAlign=middle;whiteSpace=wrap;rounded=0;strokeWidth=10;" vertex="1" parent="1">
          <mxGeometry x="280" y="-40" width="60" height="30" as="geometry" />
        </mxCell>
        <mxCell id="kJR66jxbIm6fvpwEPS24-48" value="&lt;font style=&quot;font-size: 27px;&quot;&gt;G&lt;/font&gt;" style="text;html=1;strokeColor=none;fillColor=none;align=center;verticalAlign=middle;whiteSpace=wrap;rounded=0;strokeWidth=10;" vertex="1" parent="1">
          <mxGeometry x="-12.5" y="640" width="60" height="30" as="geometry" />
        </mxCell>
        <mxCell id="kJR66jxbIm6fvpwEPS24-49" value="&lt;font style=&quot;font-size: 27px;&quot;&gt;3&lt;/font&gt;" style="text;html=1;strokeColor=none;fillColor=none;align=center;verticalAlign=middle;whiteSpace=wrap;rounded=0;strokeWidth=10;" vertex="1" parent="1">
          <mxGeometry x="530" y="-40" width="60" height="30" as="geometry" />
        </mxCell>
        <mxCell id="kJR66jxbIm6fvpwEPS24-50" value="&lt;font style=&quot;font-size: 27px;&quot;&gt;4&lt;/font&gt;" style="text;html=1;strokeColor=none;fillColor=none;align=center;verticalAlign=middle;whiteSpace=wrap;rounded=0;strokeWidth=10;" vertex="1" parent="1">
          <mxGeometry x="710" y="-40" width="60" height="30" as="geometry" />
        </mxCell>
      </root>
    </mxGraphModel>
  </diagram>
</mxfile>
